<?xml version="1.0" standalone="no"?>
<!DOCTYPE svg PUBLIC "-//W3C//DTD SVG 20010904//EN"
 "http://www.w3.org/TR/2001/REC-SVG-20010904/DTD/svg10.dtd">
<svg version="1.0" xmlns="http://www.w3.org/2000/svg"
 width="1024.000000pt" height="1024.000000pt" viewBox="0 0 1024.000000 1024.000000"
 preserveAspectRatio="xMidYMid meet">

<g transform="translate(0.000000,1024.000000) scale(0.100000,-0.100000)"
fill="#000000" stroke="none">
<path d="M4058 6791 c-75 -24 -115 -50 -172 -111 -107 -115 -142 -286 -87
-430 10 -25 140 -247 291 -495 150 -247 305 -503 344 -569 39 -65 90 -139 114
-163 73 -76 203 -121 308 -108 55 7 181 63 205 91 15 18 21 6 -136 259 -374
600 -348 555 -353 616 -4 54 -2 59 30 95 31 33 41 37 81 37 40 0 62 -11 201
-99 240 -152 227 -145 266 -141 23 3 88 39 185 102 212 137 239 150 286 136
66 -20 103 -95 81 -160 -6 -16 -78 -139 -159 -273 -326 -531 -337 -550 -326
-567 17 -27 134 -81 199 -91 113 -18 241 25 311 104 19 23 121 181 225 351
583 951 549 889 550 1008 3 231 -164 414 -387 425 -130 6 -158 -7 -558 -262
-196 -125 -369 -231 -385 -237 -22 -8 -38 -7 -65 4 -19 8 -180 107 -358 219
-178 112 -340 214 -359 225 -89 53 -227 67 -332 34z"/>
<path d="M4840 5713 c-36 -46 -39 -39 242 -510 27 -45 52 -85 57 -87 7 -4 37
44 253 398 83 136 95 178 60 209 -10 10 -33 17 -51 17 -27 0 -47 -14 -115 -79
-89 -85 -132 -105 -177 -80 -13 7 -58 45 -101 86 -65 62 -82 73 -112 73 -26 0
-40 -7 -56 -27z"/>
<path d="M6912 4641 c-10 -6 -12 -99 -10 -417 3 -363 5 -413 20 -440 28 -52
50 -55 318 -52 l243 3 49 55 c83 92 96 85 -157 82 -251 -3 -279 2 -315 60 -19
31 -20 50 -20 340 l0 308 -27 29 c-29 30 -79 46 -101 32z"/>
<path d="M6262 4617 c-22 -23 -22 -26 -22 -439 0 -475 -5 -448 88 -448 l52 0
0 151 0 151 140 -134 c78 -73 155 -141 173 -150 44 -25 182 -26 173 -2 -3 9
-6 17 -6 18 0 1 -72 67 -160 146 -87 79 -162 150 -165 158 -4 10 44 65 142
163 l147 149 -71 0 c-83 0 -76 5 -249 -157 -67 -62 -123 -113 -125 -113 -2 0
-3 119 -1 265 l3 265 -49 0 c-38 0 -53 -5 -70 -23z"/>
<path d="M2146 4578 c-22 -13 -49 -39 -60 -58 -20 -33 -21 -53 -24 -407 l-3
-373 45 0 c32 0 52 6 71 23 l25 22 7 330 c3 192 10 335 16 343 5 6 25 12 43
12 26 0 37 -5 44 -22 5 -13 28 -149 50 -303 46 -310 59 -355 120 -390 47 -27
133 -27 180 0 19 12 43 37 53 58 15 29 60 273 113 604 5 36 30 55 62 47 20 -6
21 -11 24 -346 l3 -340 24 -19 c16 -13 39 -19 73 -19 l49 0 -3 368 c-3 407 -5
417 -72 465 -44 31 -156 36 -206 9 -61 -34 -69 -59 -120 -389 -47 -307 -52
-322 -91 -323 -27 0 -40 24 -49 92 -83 569 -82 566 -143 612 -22 17 -46 22
-110 24 -70 2 -88 -1 -121 -20z"/>
<path d="M3733 4586 c-37 -17 -53 -43 -53 -85 l0 -31 165 0 165 0 0 -370 0
-370 50 0 c41 0 56 5 75 25 l25 24 0 346 0 345 160 0 160 0 0 34 c0 22 -9 45
-24 63 l-24 28 -334 2 c-267 2 -339 0 -365 -11z"/>
<path d="M7945 4294 c-143 -84 -262 -153 -265 -154 -3 0 -41 59 -84 130 -44
72 -84 130 -90 130 -6 -1 -23 -17 -38 -36 l-27 -36 91 -182 c49 -99 91 -182
92 -183 0 0 42 23 91 53 50 29 93 53 98 54 12 0 -11 -33 -170 -249 -84 -113
-153 -214 -153 -226 0 -20 46 -184 54 -192 2 -2 86 127 187 287 101 160 250
395 332 522 81 127 146 232 145 233 -2 1 -120 -67 -263 -151z"/>
<path d="M4997 4390 c-87 -22 -144 -66 -172 -134 -24 -57 -16 -66 57 -66 61 0
64 1 75 29 16 44 55 64 121 64 97 0 150 -42 159 -127 l5 -44 -154 -3 c-140 -4
-158 -6 -202 -29 -69 -35 -89 -67 -94 -145 -5 -79 7 -113 59 -159 46 -42 101
-59 195 -59 75 1 131 21 168 62 25 28 32 27 39 -8 5 -24 14 -32 44 -41 21 -7
52 -10 68 -8 24 2 29 7 26 23 -2 11 -7 126 -10 255 -7 255 -9 266 -68 322 -45
43 -114 68 -200 73 -43 2 -95 0 -116 -5z m241 -435 c-5 -61 -25 -90 -75 -111
-45 -19 -131 -18 -172 4 -57 28 -66 98 -19 142 19 18 35 20 146 20 l124 0 -4
-55z"/>
<path d="M5742 4389 c-62 -10 -125 -40 -165 -78 -97 -89 -121 -299 -50 -439
50 -101 147 -152 288 -152 174 0 279 77 310 228 l7 32 -69 0 -69 0 -21 -49
c-29 -69 -67 -91 -157 -91 -51 0 -78 5 -106 21 -59 33 -74 69 -78 184 -3 90
-1 104 20 144 66 122 271 119 324 -5 11 -27 20 -32 60 -38 103 -14 104 -13 79
71 -38 127 -200 202 -373 172z"/>
<path d="M3652 4380 c-27 -11 -28 -14 -104 -255 -33 -104 -62 -194 -65 -198
-17 -27 -46 42 -124 291 -23 73 -48 140 -56 148 -10 9 -36 14 -79 14 -63 0
-65 -1 -58 -22 4 -13 49 -140 100 -283 71 -198 100 -265 119 -280 14 -12 25
-24 25 -28 0 -3 -34 -79 -76 -168 -42 -88 -73 -163 -71 -166 13 -12 89 11 126
38 33 23 52 52 101 155 34 70 73 154 87 188 22 52 203 562 203 572 0 8 -106 2
-128 -6z"/>
<path d="M4649 4380 c-66 -11 -118 -38 -164 -85 -76 -75 -80 -91 -83 -342 l-3
-223 44 0 c29 0 53 7 68 19 23 19 24 25 29 203 6 198 11 217 67 270 34 32 73
48 119 48 l35 0 -3 58 c-3 56 -4 57 -33 59 -16 0 -51 -3 -76 -7z"/>
</g>
</svg>
